<svg version="1.1" id="Layer_1" xmlns="http://www.w3.org/2000/svg" xmlns:xlink="http://www.w3.org/1999/xlink" x="0px" y="0px" viewBox="0 0 342.74 67.1" style="enable-background:new 0 0 342.74 67.1;" xml:space="preserve">
<style type="text/css" class="__web-inspector-hide-shortcut__">
	.st0{fill:#FFFFFF;}
	.st1{fill:#DBDBEF;}
	.st2{fill:#B7B9E0;}
	.st3{fill:#9699D2;}
	.st4{fill:#747BC3;}
	.st5{fill:#4556B0;}
	.st6{fill:#00369C;}
</style>
<g id="Jeppesen_White">
	<g>
		<g>
			<path class="st0" d="M135.58,46.86h1.67l6.16,15.7h-1.61l-1.92-4.88h-7.14l-1.89,4.88h-1.61L135.58,46.86z M133.21,56.41h6.19
				l-3.03-8.05L133.21,56.41z"></path>
			<path class="st0" d="M150.95,46.86h6.64c2.65,0,5.03,0.92,5.03,3.85c0,1.65-1.1,3.16-2.72,3.51v0.04
				c2.02,0.26,3.32,1.78,3.32,3.83c0,1.49-0.53,4.46-5.63,4.46h-6.64V46.86z M152.44,53.75h5.15c2.4,0,3.54-1.19,3.54-2.66
				c0-1.96-1.21-2.94-3.54-2.94h-5.15V53.75z M152.44,61.29h5.15c2.22,0.03,4.14-0.73,4.14-3.23c0-2-1.52-3.03-4.14-3.03h-5.15
				V61.29z"></path>
			<path class="st0" d="M175.76,56.9c0,3.25-1.89,6-5.37,6c-3.48,0-5.37-2.75-5.37-6c0-3.25,1.89-6,5.37-6
				C173.87,50.9,175.76,53.64,175.76,56.9z M166.42,56.9c0,2.41,1.32,4.84,3.98,4.84s3.98-2.41,3.98-4.84s-1.32-4.84-3.98-4.84
				S166.42,54.47,166.42,56.9z"></path>
			<path class="st0" d="M178.9,57.26c0.03,2.02,1.08,4.46,3.73,4.46c2.02,0,3.13-1.19,3.57-2.9h1.39c-0.6,2.57-2.09,4.07-4.95,4.07
				c-3.6,0-5.12-2.77-5.12-6c0-3,1.52-6,5.12-6c3.66,0,5.11,3.19,4.99,6.38C187.63,57.26,178.9,57.26,178.9,57.26z M186.25,56.11
				c-0.06-2.09-1.36-4.05-3.6-4.05c-2.27,0-3.51,1.98-3.73,4.05H186.25z"></path>
			<path class="st0" d="M189.83,46.86h1.39v2.22h-1.39V46.86z M189.83,51.22h1.39v11.35h-1.39V51.22z"></path>
			<path class="st0" d="M194.03,51.22h1.39v1.96h0.04c0.51-1.36,2.02-2.28,3.63-2.28c3.19,0,4.16,1.67,4.16,4.38v7.3h-1.39V55.5
				c0-1.96-0.64-3.44-2.88-3.44c-2.2,0-3.51,1.67-3.57,3.89v6.61h-1.39V51.22z"></path>
			<path class="st0" d="M215.64,61.64c-0.03,3.38-1.32,5.46-5.03,5.46c-2.27,0-4.51-1.01-4.71-3.44h1.39
				c0.31,1.67,1.78,2.27,3.32,2.27c2.55,0,3.66-1.52,3.66-4.29V60.1h-0.04c-0.64,1.39-1.98,2.33-3.6,2.33
				c-3.63,0-5.12-2.59-5.12-5.82c0-3.13,1.84-5.72,5.12-5.72c1.65,0,3.06,1.04,3.6,2.28h0.04v-1.96h1.39v10.43H215.64z
				 M214.25,56.76c0-2.22-1.04-4.71-3.66-4.71c-2.63,0-3.73,2.36-3.73,4.71c0,2.3,1.19,4.51,3.73,4.51
				C213.01,61.27,214.25,59.08,214.25,56.76z"></path>
			<path class="st0" d="M236.13,51.62c-0.53-2.42-2.53-3.8-4.81-3.8c-4.15,0-5.91,3.48-5.91,6.9c0,3.44,1.76,6.91,5.91,6.91
				c2.9,0,4.75-2.24,5.03-5.03h1.49c-0.41,3.85-2.85,6.31-6.54,6.31c-4.95,0-7.42-3.89-7.42-8.18s2.46-8.18,7.42-8.18
				c2.97,0,5.91,1.78,6.31,5.08h-1.49V51.62z"></path>
			<path class="st0" d="M250.29,56.9c0,3.25-1.89,6-5.37,6c-3.48,0-5.37-2.75-5.37-6c0-3.25,1.89-6,5.37-6
				C248.39,50.9,250.29,53.64,250.29,56.9z M240.94,56.9c0,2.41,1.32,4.84,3.98,4.84c2.66,0,3.98-2.41,3.98-4.84
				s-1.32-4.84-3.98-4.84C242.26,52.06,240.94,54.47,240.94,56.9z"></path>
			<path class="st0" d="M252.57,51.22h1.27v1.92h0.06c0.73-1.36,1.92-2.24,3.72-2.24c1.49,0,2.84,0.73,3.25,2.22
				c0.69-1.49,2.11-2.22,3.6-2.22c2.49,0,3.76,1.3,3.76,3.98v7.7h-1.39v-7.62c0-1.87-0.7-2.88-2.68-2.88c-2.4,0-3.07,1.98-3.07,4.08
				v6.42h-1.39v-7.7c0.03-1.54-0.61-2.81-2.37-2.81c-2.4,0-3.37,1.8-3.38,4.18v6.33h-1.39L252.57,51.22L252.57,51.22z"></path>
			<path class="st0" d="M271.1,51.22h1.27v2.15h0.04c0.64-1.54,2.22-2.49,4.05-2.49c3.45,0,5.11,2.79,5.11,6c0,3.2-1.65,6-5.11,6
				c-1.7,0-3.35-0.86-3.93-2.49h-0.04v6.35h-1.39L271.1,51.22L271.1,51.22z M276.47,52.06c-3.06,0-3.98,2.27-3.98,4.84
				c0,2.35,1.04,4.84,3.98,4.84c2.65,0,3.72-2.49,3.72-4.84C280.17,54.54,279.1,52.06,276.47,52.06z"></path>
			<path class="st0" d="M283.74,54.69c0.13-2.66,2-3.8,4.59-3.8c2,0,4.18,0.62,4.18,3.66v6.03c0,0.53,0.26,0.83,0.82,0.83
				c0.16,0,0.32-0.04,0.44-0.09v1.17c-0.31,0.06-0.53,0.09-0.89,0.09c-1.41,0-1.63-0.79-1.63-1.98h-0.04
				c-0.97,1.48-1.96,2.31-4.14,2.31c-2.09,0-3.8-1.04-3.8-3.32c0-3.19,3.1-3.29,6.09-3.64c1.14-0.13,1.78-0.29,1.78-1.54
				c0-1.87-1.34-2.33-2.97-2.33c-1.71,0-3,0.79-3.03,2.63H283.74z M291.13,56.37h-0.04c-0.18,0.32-0.79,0.44-1.17,0.51
				c-2.35,0.41-5.28,0.4-5.28,2.62c0,1.39,1.23,2.24,2.53,2.24c2.11,0,3.98-1.34,3.95-3.57V56.37z"></path>
			<path class="st0" d="M295.57,51.22h1.39v1.96h0.04c0.51-1.36,2.02-2.28,3.63-2.28c3.19,0,4.16,1.67,4.16,4.38v7.3h-1.39V55.5
				c0-1.96-0.64-3.44-2.88-3.44c-2.2,0-3.51,1.67-3.57,3.89v6.61h-1.39L295.57,51.22L295.57,51.22z"></path>
			<path class="st0" d="M306.07,51.22h1.48l3.73,9.67l3.5-9.67h1.39l-4.93,13.08c-0.79,1.92-1.26,2.46-3,2.46
				c-0.54-0.03-0.83-0.03-1.05-0.1V65.5c0.32,0.06,0.64,0.1,0.95,0.1c1.23,0,1.52-0.73,1.98-1.78l0.48-1.3L306.07,51.22z"></path>
		</g>
		<g>
			<path class="st0" d="M112.3,20.45H97.18l-4.54,5.11h18.08c2.59,0,4.08-0.27,5.15-0.92c1.83-1.15,2.32-2.65,2.32-7.22V0h-5.87
				v20.45H112.3z"></path>
			<polygon class="st0" points="124.07,25.57 149.61,25.57 149.61,20.45 129.94,20.45 129.94,15.34 143.72,15.34 148.26,10.23 
				129.94,10.23 129.94,5.12 149.61,5.12 149.61,0 124.07,0 			"></polygon>
			<polygon class="st0" points="218.81,25.57 244.36,25.57 244.36,20.45 224.7,20.45 224.7,15.34 238.49,15.34 243.01,10.23 
				224.7,10.23 224.7,5.12 244.36,5.12 244.36,0 218.81,0 			"></polygon>
			<polygon class="st0" points="281.29,25.57 306.83,25.57 306.83,20.45 287.16,20.45 287.16,15.34 300.95,15.34 305.49,10.23 
				287.16,10.23 287.16,5.12 306.83,5.12 306.83,0 281.29,0 			"></polygon>
			<path class="st0" d="M173.2,0h-17.71v25.57h5.89V15.34h13.07c3.32,0,4.37-0.16,5.3-0.7c1.59-1,2.35-3.31,2.35-7.3
				c0-1.69-0.35-3.31-1-4.73C180.19,0.7,178.07,0,173.2,0z M176.21,10.23h-14.85V5.12h14.85V10.23z"></path>
			<path class="st0" d="M204.82,0h-17.71v25.57H193V15.34h13.07c3.32,0,4.37-0.16,5.3-0.7c1.59-1,2.35-3.31,2.35-7.3
				c0-1.69-0.35-3.31-1-4.73C211.81,0.7,209.7,0,204.82,0z M207.83,10.23h-14.85V5.12h14.85V10.23z"></path>
			<path class="st0" d="M269.58,10.23l-14.22-0.01V5.1h20.06v-5.12h-16.84c-7.2,0-9.09,1.62-9.09,7.73c0,3.66,0.79,5.84,2.45,6.99
				c0.83,0.57,2.28,0.62,4.81,0.62h13.56v5.11l-20.06-0.03v5.11h17.01c4.73,0,5.43-0.03,6.72-0.8c1.72-1,2.22-2.61,2.22-7.3
				c0-2.27-0.21-3.7-0.69-4.66C274.62,11.07,272.55,10.23,269.58,10.23z"></path>
			<polygon class="st0" points="336.83,0 336.83,19.98 321.32,0 312.71,0 312.71,25.6 318.6,25.6 318.6,6.04 333.68,25.6 
				342.74,25.6 342.74,0 			"></polygon>
		</g>
		<g>
			<path class="st1" d="M50.33,15.15c-0.82-0.19-1.72-0.4-2.58-0.6l-35.74,0.01c0,0,6.39,1.15,14.61,2.77
				c7.52,1.48,16.57,3.35,23.7,5.07c14.95,3.62,26.02,9.41,26.02,9.41l15.17-17.3h-6.37l-8.8,10.04
				C76.35,24.56,65.27,18.76,50.33,15.15"></path>
			<polygon class="st2" points="85.15,7.26 78.78,14.52 85.15,14.52 91.52,7.26 			"></polygon>
			<path class="st2" d="M50.33,7.88c-0.82-0.19-1.72-0.4-2.59-0.61L6.29,7.29c0,0,12.71,1.26,21.47,3
				c6.41,1.28,13.69,2.8,19.98,4.27l22.59-0.01C65.66,12.54,58.59,9.88,50.33,7.88"></path>
			<path class="st3" d="M76.35,17.3c0,0-2.23-1.17-6.02-2.77l-22.59,0.03c0.86,0.19,1.76,0.4,2.58,0.6
				c14.95,3.62,26.02,9.41,26.02,9.41l8.8-10.04h-6.37L76.35,17.3z"></path>
			<path class="st4" d="M91.52,0L0.55,0.04c0,0,18.59,1.3,27.5,3.06c6.33,1.24,13.49,2.74,19.67,4.18l37.41-0.01L91.52,0z"></path>
			<path class="st5" d="M70.34,14.52h8.44l6.37-7.26L47.74,7.29c0.87,0.19,1.78,0.4,2.59,0.61C58.59,9.88,65.66,12.54,70.34,14.52"></path>
			<path class="st6" d="M76.35,17.3l2.44-2.77h-8.44C74.12,16.13,76.35,17.3,76.35,17.3"></path>
		</g>
	</g>
</g>
</svg>